<svg id="_0241_reminder_note" xmlns="http://www.w3.org/2000/svg" viewBox="0 0 500 500" data-imageid="reminder-note-28" imageName="Reminder Note" class="illustrations_image" style="width: 158px;"><defs><style>.cls-1_reminder-note-28{fill:#fff;}.cls-2_reminder-note-28{opacity:.63;}.cls-2_reminder-note-28,.cls-3_reminder-note-28,.cls-4_reminder-note-28{fill:none;}.cls-5_reminder-note-28{fill:#f4a28c;}.cls-6_reminder-note-28{fill:#a5a5a5;}.cls-7_reminder-note-28{fill:#e6e6e6;}.cls-3_reminder-note-28{opacity:.28;}.cls-8_reminder-note-28{fill:#24285b;}.cls-9_reminder-note-28{fill:#000001;}.cls-10_reminder-note-28{fill:#ffd200;}.cls-4_reminder-note-28{opacity:.1;}.cls-11_reminder-note-28{fill:#68e1fd;}</style></defs><g id="note_reminder-note-28"><rect class="cls-7_reminder-note-28" x="243.35" y="155.51" width="209.16" height="267.83"/><g class="cls-4_reminder-note-28"><path class="cls-9_reminder-note-28" d="m330.25,298.64l3.68,7.31h-8.33l-9.27-5.78s-11.36,72.85-72.97,83.76v-31.53l65.71-67.46,19.95,10.98,1.23,2.7Z"/></g><g class="cls-3_reminder-note-28"><rect class="cls-6_reminder-note-28" x="278.83" y="251.95" width="142.86" height="140.1"/></g><circle class="cls-6_reminder-note-28" cx="347.46" cy="158.66" r="13.54"/><g class="cls-3_reminder-note-28"><rect class="cls-6_reminder-note-28" x="278.83" y="199.66" width="142.86" height="25.25"/></g></g><g id="notification_reminder-note-28"><circle class="cls-8_reminder-note-28" cx="225.45" cy="81.23" r="56.2"/><path class="cls-10_reminder-note-28" d="m227.6,51.19h0c11.42,0,20.7,9.27,20.7,20.7v20.7h-41.4v-20.7c0-11.42,9.27-20.7,20.7-20.7Z"/><circle class="cls-10_reminder-note-28" cx="227.96" cy="103.54" r="8.52"/><g class="cls-4_reminder-note-28"><circle class="cls-9_reminder-note-28" cx="227.96" cy="103.54" r="8.52"/></g><rect class="cls-10_reminder-note-28" x="200.92" y="87.35" width="53.12" height="14.27" rx="4.22" ry="4.22"/><g class="cls-2_reminder-note-28"><rect class="cls-1_reminder-note-28" x="200.92" y="87.35" width="53.12" height="14.27" rx="7.13" ry="7.13"/></g><circle class="cls-10_reminder-note-28" cx="227.96" cy="47.99" r="5.92"/><g class="cls-4_reminder-note-28"><circle class="cls-9_reminder-note-28" cx="227.96" cy="47.99" r="5.92"/></g></g><g id="person_reminder-note-28"><path class="cls-5_reminder-note-28" d="m103.63,262.19s-58.09,32.54-44.49,74.56c13.59,42.02,54.38,55.69,54.38,55.69l11.53-23.97-21.42-106.28Z"/><g class="cls-4_reminder-note-28"><path class="cls-9_reminder-note-28" d="m103.63,262.19s-58.09,32.54-44.49,74.56c13.59,42.02,54.38,55.69,54.38,55.69l11.53-23.97-21.42-106.28Z"/></g><polygon class="cls-5_reminder-note-28" points="167.37 197.92 167.52 215.51 152.38 219.43 156.75 190.45 167.37 197.92"/><rect class="cls-7_reminder-note-28" x="56.6" y="358.29" width="86.79" height="63.38" transform="translate(-149.33 73.88) rotate(-23.88)"/><path class="cls-5_reminder-note-28" d="m174.36,174.71c7.11-2.36,14.19,3.72,13.38,11.17-.89,8.17-3.72,19.53-12.65,17.09-13.67-3.72-9.42-21.57-9.42-21.57,0,0,3.29-4.9,8.69-6.69Z"/><path class="cls-11_reminder-note-28 targetColor" d="m210.38,243.11c-23.78-27.98-63.12-38.11-97.43-25-14.99,5.72-28.04,16.47-28,36.55.08,47.1,27.24,84.57,19,124.01l82.11,13.77,11.98-50.44c2.29-9.64,8.41-17.98,17.05-22.82,8.59-4.82,18.12-13.75,16.77-29.42-1.2-13.93-8.66-31.57-21.47-46.65Z" style="fill: rgb(104, 225, 253);"/><path class="cls-5_reminder-note-28" d="m172.18,187.89s-.05-3.92-3.65-2.63c-3.6,1.29-1.45,6.45.95,6.48,2.4.03,2.69-3.85,2.69-3.85Z"/><g class="cls-4_reminder-note-28"><path class="cls-9_reminder-note-28" d="m169.4,283.86s15.62,22.7-10.94,35.05c-26.56,12.35-17.37,65.03-17.37,65.03l-37.09-7.33s6.38-19.85-8.29-63.49c-14.67-43.63,70.91-75.53,70.91-75.53l2.78,46.26Z"/></g><path class="cls-10_reminder-note-28" d="m191.67,163.75s1.8,12.97-10.67,17.24c-12.47,4.27,15.82,36.2-13.48,58.33-29.3,22.12,9.78,54.3-24.7,66.37-34.48,12.07-60.34,14.83-70.39-17.01-10.06-31.84,5.17-56.26,29.59-73.5,24.42-17.24,37.06-20.4,43.1-44.54,6.03-24.14,45.4-25.28,46.55-6.9Z"/><path class="cls-5_reminder-note-28" d="m152.62,237.37c6.11-19.94,32.92-24.38,44.64-7.13,3.28,4.82,5.88,11.22,7.11,19.68,5.36,36.93,4.98,85.78,27.61,84.59,22.64-1.19,62.34-43.48,62.34-43.48l10.51,9.16s-48.04,92.1-104.63,56.96c-45.43-28.22-59.17-81.95-47.58-119.77Z"/><path class="cls-8_reminder-note-28" d="m104.01,376.61l-6.86,98.36h116.16l-27.26-82.54s-41.23-7.56-82.04-15.83Z"/><path class="cls-11_reminder-note-28 targetColor" d="m310.43,262.66h3.05c1.21,0,2.2.99,2.2,2.2v39.79h-7.45v-39.79c0-1.21.99-2.2,2.2-2.2Z" transform="translate(-95.36 392.6) rotate(-57.25)" style="fill: rgb(104, 225, 253);"/><polygon class="cls-8_reminder-note-28" points="327.6 298.14 337.38 300 331.63 291.88 327.6 298.14"/><path class="cls-5_reminder-note-28" d="m293.43,295.08s4.17-19.36,16.68-21.44c12.51-2.08,3.75,23.3-5.27,26.54l-11.41-5.1Z"/><g class="cls-4_reminder-note-28"><polygon class="cls-9_reminder-note-28" points="141.09 383.94 151.01 474.97 97.15 474.97 104.01 376.61 141.09 383.94"/></g></g></svg>